<svg xmlns="http://www.w3.org/2000/svg" shape-rendering="geometricPrecision" width="700" height="400" style="background-color:rgb(0,108,147)" xmlns:v="https://vecta.io/nano"><style><![CDATA[#A{animation:egu6kZbeQl17_to__to 800ms linear infinite normal forwards}#B{animation:egu6kZbeQl113_s_do 800ms linear infinite normal forwards}@keyframes egu6kZbeQl17_to__to{0%{transform:translate(0.000368px,-0.000006px)}16.666667%{transform:translate(0.000368px,6.212963px)}33.333333%{transform:translate(0.000368px,-0.000006px)}50%{transform:translate(0.000368px,6.212963px)}66.666667%{transform:translate(0.000368px,-0.000006px)}83.333333%{transform:translate(0.000368px,6.212963px)}100%{transform:translate(0.000368px,-0.000006px)}} @keyframes egu6kZbeQl113_s_do{0%{stroke-dashoffset:26.775}100%{stroke-dashoffset:157}}.B{stroke:#fff}.C{fill:none}.D{stroke-width:11}.E{stroke-linejoin:round}]]></style><g transform="matrix(.157536 0 0 .157536 300.37616 164.678418)" class="B C"><g stroke-width="16"><circle transform="matrix(.695869 0 0 .695869 214.047 274.769)" r="65"/><circle transform="matrix(.695869 0 0 .695869 432.493 274.769)" r="65"/></g><g transform="translate(319.958 198.982)" class="D"><g id="A"><g transform="translate(-280.68 -299.444)"><path d="M438.447 375.231H460V340h-10v-40q.24-10-20-10-20.24 0-90 0l-29.79-71.112H128.135l-17.561 70.128" transform="translate(.722)" class="E"/><path d="M129.537 380H100v-30h10v-60h80q30.748.396 60 20 0 0 70 0l20-20" transform="translate(.639)" class="E"/><path d="M193.56 223.467v63.726"/><path d="M220 375.231h127.984" stroke-miterlimit="14"/><path d="M249.426 331.738h29.776"/></g></g></g><path id="B" d="M-140.798 329.307h450" transform="translate(230.798 .693)" stroke-linecap="round" stroke-dashoffset="26.775" stroke-dasharray="10,50,40,30" class="D"/></g></svg>